<?xml version="1.0" encoding="utf-8"?>
<!-- Generator: Adobe Illustrator 24.1.1, SVG Export Plug-In . SVG Version: 6.00 Build 0)  -->
<svg version="1.1" id="Capa_1" xmlns="http://www.w3.org/2000/svg" xmlns:xlink="http://www.w3.org/1999/xlink" x="0px" y="0px"
	 viewBox="0 0 50 50" style="enable-background:new 0 0 50 50;" xml:space="preserve">
<style type="text/css">
	.st0{fill-rule:evenodd;clip-rule:evenodd;fill:url(#XMLID_2_);}
	.st1{fill-rule:evenodd;clip-rule:evenodd;fill:#FFFFFF;}
	.st2{fill:#FFFFFF;}
</style>
<g id="Ellipse_1_copy_2_14_">
	<g id="XMLID_337_">
		
			<linearGradient id="XMLID_2_" gradientUnits="userSpaceOnUse" x1="7.2119" y1="46.8345" x2="43.0126" y2="6.918" gradientTransform="matrix(1 0 0 -1 0 52)">
			<stop  offset="0" style="stop-color:#FF00FF"/>
			<stop  offset="0.1901" style="stop-color:#E707EE"/>
			<stop  offset="0.5917" style="stop-color:#AA19C2"/>
			<stop  offset="0.9995" style="stop-color:#662D91"/>
		</linearGradient>
		<circle id="XMLID_338_" class="st0" cx="25" cy="25" r="24.9"/>
	</g>
</g>
<path id="XMLID_334_" class="st1" d="M29.9,2.1C17.2-0.6,4.8,7.5,2.1,20.1s5.4,25.1,18,27.8s25.1-5.4,27.8-18S42.6,4.8,29.9,2.1z
	 M20.9,44.2C10.3,42,3.5,31.5,5.8,20.9S18.5,3.5,29.1,5.8s17.4,12.7,15.1,23.3C42,39.7,31.5,46.5,20.9,44.2z"/>
<path class="st2" d="M34.3,26.4c2.2-0.4,4.1-2,4.7-4.8c0.8-3.5-1.1-7-6.8-8.5l1-4.5c-1.1-0.6-2.3-1-3.6-1.3l-1.1,5L26,11.8l1.1-4.9
	c-1.3-0.2-2.6-0.2-3.8,0L22.4,11l-3.6-0.8l-5.6,25.7l3.6,0.8l-0.9,4.1c1.1,0.6,2.3,1.2,3.5,1.6l1.1-4.9l2.4,0.5l-1.1,5
	c1.3,0.2,2.5,0.3,3.8,0.3l1-4.5c6.1,1.1,9.8-1.6,10.7-5.7C38,29.8,36.1,27.5,34.3,26.4z M24.9,16.9l4.1,0.9c0.8,0.2,1.4,0.5,1.9,0.9
	c0.6,0.5,0.8,1.2,0.6,2.1c-0.2,0.8-0.6,1.5-1.4,1.8c-0.5,0.2-1.2,0.2-2,0l-4.2-0.9L24.9,16.9z M27.8,33.3c-0.6,0.2-1.4,0.2-2.4,0
	l-3.8-0.8l1.2-5.7l4,0.9c0.9,0.2,1.6,0.5,2,0.9c0.8,0.7,1,1.6,0.8,2.6C29.3,32.2,28.7,33,27.8,33.3z"/>
<path class="st1" d="M34.3,26.4c2.2-0.4,4.1-2,4.7-4.8c0.8-3.5-1.1-7-6.8-8.5l1-4.5c-1.1-0.6-2.3-1-3.6-1.3l-1.1,5L26,11.8l1.1-4.9
	c-1.3-0.2-2.6-0.2-3.8,0L22.4,11l-3.6-0.8l-5.6,25.7l3.6,0.8l-0.9,4.1c1.1,0.6,2.3,1.2,3.5,1.6l1.1-4.9l2.4,0.5l-1.1,5
	c1.3,0.2,2.5,0.3,3.8,0.3l1-4.5c6.1,1.1,9.8-1.6,10.7-5.7C38,29.8,36.1,27.5,34.3,26.4z M24.9,16.9l4.1,0.9c0.8,0.2,1.4,0.5,1.9,0.9
	c0.6,0.5,0.8,1.2,0.6,2.1c-0.2,0.8-0.6,1.5-1.4,1.8c-0.5,0.2-1.2,0.2-2,0l-4.2-0.9L24.9,16.9z M27.8,33.3c-0.6,0.2-1.4,0.2-2.4,0
	l-3.8-0.8l1.2-5.7l4,0.9c0.9,0.2,1.6,0.5,2,0.9c0.8,0.7,1,1.6,0.8,2.6C29.3,32.2,28.7,33,27.8,33.3z"/>
<g id="XMLID_308_">
	<g id="XMLID_328_">
		<path class="st2" d="M13.8,26.4c-0.3,0.3-0.7,0.6-1.1,0.7c-0.4,0.1-0.9,0.1-1.4,0c-0.5-0.1-0.9-0.3-1.3-0.6
			c-0.4-0.3-0.6-0.6-0.8-1.1c-0.1-0.4-0.2-0.9,0-1.5c0.1-0.6,0.3-1,0.7-1.3c0.3-0.3,0.7-0.6,1.1-0.7c0.4-0.1,0.9-0.1,1.4,0
			c0.5,0.1,0.9,0.3,1.3,0.6c0.4,0.3,0.6,0.6,0.7,1.1c0.1,0.4,0.2,0.9,0,1.5C14.3,25.6,14.1,26.1,13.8,26.4z M13.2,23.7
			c-0.3-0.3-0.6-0.5-1.1-0.6c-0.3-0.1-0.6-0.1-0.9,0c-0.3,0.1-0.5,0.2-0.7,0.3c-0.2,0.2-0.3,0.4-0.4,0.7c-0.1,0.4,0,0.8,0.2,1.1
			c0.2,0.3,0.6,0.5,1.1,0.6c0.5,0.1,0.9,0.1,1.3-0.1c0.3-0.2,0.6-0.5,0.7-0.9C13.5,24.4,13.5,24.1,13.2,23.7z"/>
	</g>
	<g id="XMLID_316_">
		<path class="st2" d="M13.5,19.9l-0.1,0.6l1.8,0.4L15,22.1L9.9,21l0.4-2c0.3-1.3,1-1.8,2-1.6c0.8,0.2,1.2,0.6,1.3,1.3l2.2-0.8
			l-0.3,1.3L13.5,19.9z M12.4,20.3l0.2-0.8c0.1-0.5,0-0.8-0.4-0.8c-0.2,0-0.4,0-0.5,0.1c-0.1,0.1-0.2,0.3-0.3,0.5L11.2,20L12.4,20.3
			z"/>
	</g>
	<g id="XMLID_310_">
		<path class="st2" d="M15.7,14.1l1,0.2L16,17.6l-5.1-1.1l0.7-3.3l1,0.2l-0.5,2.1l1.1,0.2l0.4-1.8l1,0.2L14.2,16l1.1,0.2L15.7,14.1z
			"/>
	</g>
	<path id="XMLID_309_" class="st2" d="M12.8,27.5c-0.1,0-0.2,0-0.2,0.1c0,0.2,0.1,0.3,0.1,0.5c0,0.2,0,0.4,0,0.6
		c-0.1,0.5-0.3,0.8-0.7,1c-0.3,0.2-0.8,0.2-1.3,0.1c-0.3-0.1-0.6-0.2-0.8-0.4c-0.2-0.2-0.4-0.4-0.5-0.6c-0.1-0.3-0.1-0.5,0-0.8
		c0.1-0.4,0.2-0.7,0.4-1c0,0-0.1-0.1-0.1-0.1c-0.2-0.2-0.4-0.4-0.5-0.6c-0.2,0.2-0.3,0.3-0.3,0.3c-0.1,0.2-0.2,0.4-0.3,0.6
		c-0.1,0.2-0.1,0.4-0.2,0.6c-0.1,0.6-0.1,1.1,0,1.5c0.1,0.5,0.4,0.8,0.7,1.1c0.4,0.3,0.8,0.5,1.3,0.6c0.8,0.2,1.5,0.1,2.1-0.2
		c0.6-0.3,0.9-1,1.1-1.8c0.1-0.3,0.1-0.5,0.1-0.8c0-0.3,0-0.6-0.1-0.9h0C13.3,27.3,13.1,27.4,12.8,27.5z"/>
</g>
<path id="XMLID_537_" class="st1" d="M29,6.1C18.6,3.9,8.4,10.6,6.1,21S10.6,41.7,21,43.9S41.7,39.5,43.9,29
	C46.1,18.6,39.5,8.4,29,6.1z M21.1,43.2c-10.1-2.1-16.5-12-14.3-22.1s12-16.5,22.1-14.3s16.5,12,14.3,22.1
	C41.1,39,31.2,45.4,21.1,43.2z"/>
<path id="XMLID_540_" class="st1" d="M30.1,1.1C16.9-1.7,3.9,6.7,1.1,19.9s5.6,26.2,18.8,29c13.2,2.8,26.2-5.6,29-18.8
	C51.7,16.9,43.3,3.9,30.1,1.1z M20.1,48.3C7.2,45.5-1,32.9,1.8,20.1S17.1-1,30,1.8S51,17.1,48.3,30S32.9,51,20.1,48.3z"/>
</svg>
